<?xml version="1.0" encoding="utf-8"?>
<!-- Generator: Adobe Illustrator 25.2.1, SVG Export Plug-In . SVG Version: 6.00 Build 0)  -->
<svg version="1.1" id="Capa_1" xmlns="http://www.w3.org/2000/svg" xmlns:xlink="http://www.w3.org/1999/xlink" x="0px" y="0px"
	 viewBox="0 0 739.7 855.7" style="enable-background:new 0 0 739.7 855.7;" xml:space="preserve">
<style type="text/css">
	.st0{enable-background:new    ;}
</style>
<g class="st0">
	<path d="M10.9,365.5h155.4v28.8H53.1v19.6h59.4v28.8H53.1v18.8h113.2v28.8H10.9V365.5z"/>
</g>
<g class="st0">
	<path d="M185.9,365.5h155.4v28.8H228.1v23.2h59.4v28.8h-59.4v44h-42.2L185.9,365.5L185.9,365.5z"/>
</g>
<path d="M514.6,490.2h-45.2L458,473.5h-87.8l-11.4,16.8h-45.4L393,365.5h42.2L514.6,490.2z M441,444.5l-27-41l-26.4,41H441z"/>
<path d="M639.6,490.2H617l-47-59.6v59.6h-42.2V365.5H568l60.2,77l60.4-77h40.2v124.8h-42.2v-59.6L639.6,490.2z"/>
</svg>
